<svg xmlns="http://www.w3.org/2000/svg" viewBox="0 0 512 512"><g id="Aerosol"><path d="M367.1283,270.7084a36.38,36.38,0,0,0-49.667-13.334L98.59,382.7152a10,10,0,1,0,9.939,17.3555L327.4305,274.7123a16.3811,16.3811,0,1,1,16.3809,28.373l-11.1221,6.4219a10,10,0,0,0,10.001,17.32l11.1216-6.4218A36.4221,36.4221,0,0,0,367.1283,270.7084Z"/><path d="M393.6278,134.766a48.3944,48.3944,0,0,0-66.0342-17.6934l-16.1631,9.3321a10,10,0,0,0,10,17.32l16.1626-9.332a28.3408,28.3408,0,0,1,28.3623,49.0752L46.807,366.7045a10,10,0,1,0,9.958,17.3437L375.9344,200.8A48.3947,48.3947,0,0,0,393.6278,134.766Z"/><path d="M206.19,157.808a5.9977,5.9977,0,0,0,8.1963,2.1963l8.7241-5.0369V165.04a6,6,0,1,0,12,0v-10.073l8.7241,5.0369a6,6,0,1,0,6-10.3926l-8.7237-5.0366,8.7237-5.0366a6,6,0,0,0-6-10.3926l-8.7241,5.0369v-10.074a6,6,0,0,0-12,0v10.074l-8.7241-5.0369a6,6,0,1,0-6,10.3926l8.7237,5.0366-8.7237,5.0366A6,6,0,0,0,206.19,157.808Z"/><path d="M446.534,228.3988a6.0021,6.0021,0,0,0-8.1963-2.1963l-8.7241,5.0369v-10.074a6,6,0,1,0-12,0v10.074l-8.7241-5.0369a6,6,0,0,0-6,10.3926l8.7238,5.0366-8.7238,5.0366a6,6,0,1,0,6,10.3926l8.7241-5.0368V262.098a6,6,0,1,0,12,0V252.0241l8.7241,5.0368a6,6,0,1,0,6-10.3926l-8.7237-5.0366,8.7237-5.0366A6,6,0,0,0,446.534,228.3988Z"/><circle cx="164.4966" cy="231.0783" r="15.0369"/><circle cx="285.0634" cy="366.2284" r="15.0369"/><circle cx="383.3611" cy="383.3842" r="15.0369"/><circle cx="455.1789" cy="154.8078" r="15.0369"/></g></svg>