<svg xmlns="http://www.w3.org/2000/svg" viewBox="0 0 512 512"><g id="Cloudy_Night"><path d="M94.1255,287.8318a79.6936,79.6936,0,0,1,67.939-38.1051h2.5528q2.4052,0,4.8125.1455a117.6391,117.6391,0,0,1,66.5967-89.5865,95.3118,95.3118,0,0,0-72.9053-37.3573,7,7,0,0,0-5.7227,11.3139A66.1321,66.1321,0,0,1,77.3741,234.9186a7,7,0,0,0-9.7314,8.1274A95.1231,95.1231,0,0,0,94.1255,287.8318Z"/><path d="M383.589,266.92a97.693,97.693,0,0,0-195.2422-5.2979,10,10,0,0,1-11.9473,9.273,60.2035,60.2035,0,0,0-11.7822-1.168h-2.5528a59.6743,59.6743,0,0,0,0,119.3486H401.3009a43.2883,43.2883,0,0,0,0-86.5766H390.5245a10,10,0,0,1-9.7158-12.3672A98.161,98.161,0,0,0,383.589,266.92Z"/></g></svg>