<svg xmlns="http://www.w3.org/2000/svg" viewBox="0 0 512 512"><g id="Cloudy_Day"><path d="M192.874,158.9722a9,9,0,0,1-9-9v-23.625a9,9,0,0,1,18,0v23.625A9,9,0,0,1,192.874,158.9722Z"/><path d="M82.7334,269.1133H59.1079a9,9,0,0,1,0-18H82.7334a9,9,0,1,1,0,18Z"/><path d="M114.9927,191.2319a8.972,8.972,0,0,1-6.3638-2.6362L91.9233,171.89a9,9,0,1,1,12.7276-12.7275l16.7055,16.7056a9,9,0,0,1-6.3637,15.3637Z"/><path d="M381.8916,272.4971A97.6927,97.6927,0,0,0,186.65,267.1992a10,10,0,0,1-11.9478,9.273,60.1977,60.1977,0,0,0-11.7817-1.168h-2.5532a59.6743,59.6743,0,1,0,0,119.3486H399.6035a43.2883,43.2883,0,0,0,0-86.5766H388.8271a10.0005,10.0005,0,0,1-9.7158-12.3672A98.1558,98.1558,0,0,0,381.8916,272.4971Z"/><path d="M160.3672,255.3042H162.92q2.4045,0,4.8125.1455a117.4194,117.4194,0,0,1,46.3848-77.5251A84.838,84.838,0,0,0,109.15,274.0115,79.3037,79.3037,0,0,1,160.3672,255.3042Z"/></g></svg>