<svg xmlns="http://www.w3.org/2000/svg" viewBox="0 0 512 512"><g id="CO2"><path d="M163.2432,364.1158h72.8312A19.9256,19.9256,0,0,1,256,384.0414v2.2715a19.9255,19.9255,0,0,1-19.9255,19.9255H163.2432a19.9256,19.9256,0,0,1-19.9256-19.9256v-2.2715A19.9255,19.9255,0,0,1,163.2432,364.1158Z"/><path d="M264.002,168.1473a18.4748,18.4748,0,0,0-18.4537,18.4541v20.6025a18.4539,18.4539,0,1,0,36.9078,0V186.6014A18.4748,18.4748,0,0,0,264.002,168.1473Z"/><path d="M408.5258,255.4978a3.7841,3.7841,0,0,1-3.1125-5.9224,91.9393,91.9393,0,0,0,15.6361-51.4343v0A92.3794,92.3794,0,0,0,328.67,105.7614H160.8309a92.38,92.38,0,0,0-92.3794,92.38v0a92.38,92.38,0,0,0,92.38,92.38h66.4562a7.8377,7.8377,0,0,1,7.6919,6.4319l.0307.1617a7.7976,7.7976,0,0,1-7.6932,9.2146H216.3707a23.3266,23.3266,0,1,0,0,46.6531h56.76a23.3265,23.3265,0,0,0,23.3265-23.3266v0l0-.1319a3.987,3.987,0,0,1,3.9762-3.98H408.5256a35.0229,35.0229,0,0,0,35.0229-35.0228v0A35.0226,35.0226,0,0,0,408.5258,255.4978ZM210.4492,232.7889a35.8464,35.8464,0,0,1-27.5478,12.8691h-5.0689a35.9605,35.9605,0,0,1-35.92-35.92V184.0662a35.96,35.96,0,0,1,35.92-35.9189h5.0689a35.6786,35.6786,0,0,1,25.3994,10.5215,10,10,0,1,1-14.1436,14.1406,15.81,15.81,0,0,0-11.2558-4.6621h-5.0689a15.9377,15.9377,0,0,0-15.92,15.9189v25.6719a15.9379,15.9379,0,0,0,15.92,15.92h5.0689a15.8953,15.8953,0,0,0,12.2138-5.709,10,10,0,0,1,15.334,12.84Zm92.0069-25.585a38.4539,38.4539,0,1,1-76.9078,0V186.6014a38.4539,38.4539,0,1,1,76.9078,0Zm56.6308,55.585a10,10,0,0,1,0,20H326.1875a10,10,0,0,1-7.7461-16.3242l28.3-34.6592q.1949-.2388.4043-.4658a7.3,7.3,0,0,0-5.3584-12.2578h-2.0586a7.3086,7.3086,0,0,0-7.3008,7.3v2.2031a10,10,0,1,1-20,0v-2.2031a27.3315,27.3315,0,0,1,27.3008-27.3h2.0586A27.3006,27.3006,0,0,1,362.06,244.6668l-14.7969,18.1221Z"/></g></svg>