<svg xmlns="http://www.w3.org/2000/svg" viewBox="0 0 512 512"><g id="Condensation"><path d="M311.4252,124.3267a94.9129,94.9129,0,0,0-79.9866,43.8776L257.6325,215.79h23.6224a30.3515,30.3515,0,0,1,43.5382-23.8223l20.302-20.3018a10,10,0,1,1,14.1416,14.1426l-20.386,20.3858a30.1305,30.1305,0,0,1,2.7449,9.5957H373.18a10,10,0,0,1,0,20H336.8637a30.3349,30.3349,0,0,1-50.877,0h-17.345l13.1277,23.8486q.1422.2578.2686.5234a102.9714,102.9714,0,0,1,9.8043,51.9134,94.8961,94.8961,0,1,0,19.5829-187.7483Z"/><circle cx="311.4252" cy="219.229" r="10.3704"/><path d="M259.2123,348.9116a82.73,82.73,0,0,0,4.8906-79.8935L193.46,140.6841a5.2123,5.2123,0,0,0-9.1319,0l-70.6426,128.334a83.1628,83.1628,0,0,0,145.5264,79.8935Zm-70.3174,15.7617a10,10,0,1,1,0-20,40.1644,40.1644,0,0,0,36.6324-56.63,10,10,0,1,1,18.2255-8.2344,60.1636,60.1636,0,0,1-54.8579,84.8642Z"/></g></svg>