<svg xmlns="http://www.w3.org/2000/svg" viewBox="0 0 512 512"><g id="Day"><path d="M187.3291,144.769a10,10,0,0,1-10-10V113.4722a10,10,0,0,1,20,0V134.769A10,10,0,0,1,187.3291,144.769Z"/><path d="M88.042,244.0552H66.7451a10,10,0,1,1,0-20H88.042a10,10,0,1,1,0,20Z"/><path d="M102.0635,329.3208A10,10,0,0,1,94.9922,312.25l15.06-15.06a10,10,0,0,1,14.1425,14.1426l-15.0595,15.06A9.97,9.97,0,0,1,102.0635,329.3208Z"/><path d="M257.5352,173.8491a10,10,0,0,1-7.0713-17.0708l15.0586-15.0591a10,10,0,1,1,14.1425,14.1416L264.6064,170.92A9.9693,9.9693,0,0,1,257.5352,173.8491Z"/><path d="M117.123,173.8491a9.9692,9.9692,0,0,1-7.0712-2.9287l-15.06-15.0591a10,10,0,0,1,14.1426-14.1425l15.06,15.059a10,10,0,0,1-7.0713,17.0713Z"/><path d="M400.2666,299.3955a87.08,87.08,0,0,0-174.0312-4.7231,9.9991,9.9991,0,0,1-11.9463,9.2729,53.2914,53.2914,0,0,0-10.4287-1.0337H201.56a52.8081,52.8081,0,1,0,0,105.6162H417.2188a38.0371,38.0371,0,0,0,0-76.0742h-9.7149a10,10,0,0,1-9.7158-12.3672A87.511,87.511,0,0,0,400.2666,299.3955Z"/><path d="M151.8506,302.5919a72.5245,72.5245,0,0,1,49.709-19.68H203.86q1.746,0,3.496.084a106.9667,106.9667,0,0,1,52.1613-76.282,77.1943,77.1943,0,1,0-107.6671,95.8783Z"/></g></svg>