<svg xmlns="http://www.w3.org/2000/svg" viewBox="0 0 512 512"><g id="Dust_Mask"><path d="M415.0293,180.3833H375.86l-90.1214-22.2959a124.3143,124.3143,0,0,0-59.4766,0L136.14,180.3833h-39.17a67.5308,67.5308,0,1,0,0,135.0615h30.27C160.8729,342.2483,207.382,357.522,256,357.522s95.1271-15.2737,128.76-42.0772h30.2695a67.5308,67.5308,0,1,0,0-135.0615Zm0,115.0615H391.83V237.8464L284.52,211.2979a129.4184,129.4184,0,0,0-62.1643,0L120.17,236.5789v58.8659H96.9707a47.5308,47.5308,0,1,1,0-95.0615H120.17v15.5925l97.3827-24.0926a149.42,149.42,0,0,1,71.7709,0l102.5066,25.36v-16.86h23.1992a47.5308,47.5308,0,1,1,0,95.0615Z"/></g></svg>