<svg xmlns="http://www.w3.org/2000/svg" viewBox="0 0 512 512"><g id="Full_Moon"><path d="M216.38,379.0776a23.8775,23.8775,0,1,0-47.078,5.6312,154.9349,154.9349,0,0,0,31.9922,16.5619A23.911,23.911,0,0,0,216.38,379.0776Z"/><path d="M318.7778,313.3384a15.95,15.95,0,1,0,15.95,15.95A15.9679,15.9679,0,0,0,318.7778,313.3384Z"/><path d="M166.8335,226.0776a15.6692,15.6692,0,1,0,15.6694,15.67A15.687,15.687,0,0,0,166.8335,226.0776Z"/><circle cx="296.9012" cy="198.5255" r="42.0878" transform="translate(-53.4184 268.0877) rotate(-45)"/><path d="M256,100.7666c-85.5962,0-155.2334,69.6372-155.2334,155.2334a154.82,154.82,0,0,0,49.0181,113.0951,43.8686,43.8686,0,1,1,75.5175,39.0841A155.357,155.357,0,0,0,256,411.2334c85.5962,0,155.2334-69.6372,155.2334-155.2334S341.5962,100.7666,256,100.7666ZM166.8335,277.416a35.6692,35.6692,0,1,1,35.6694-35.6689A35.7092,35.7092,0,0,1,166.8335,277.416Zm151.9443,87.8223a35.95,35.95,0,1,1,35.95-35.95A35.99,35.99,0,0,1,318.7778,365.2383Zm-21.8764-104.625a62.0877,62.0877,0,1,1,62.0874-62.0879A62.1583,62.1583,0,0,1,296.9014,260.6133Z"/></g></svg>