<svg xmlns="http://www.w3.org/2000/svg" viewBox="0 0 512 512"><g id="Hail"><polygon points="256 450.141 286.743 427.805 275 391.665 237 391.665 225.257 427.805 256 450.141"/><polygon points="334.999 342.284 304.256 364.62 315.999 400.76 353.999 400.76 365.742 364.62 334.999 342.284"/><polygon points="177.001 342.284 146.258 364.62 158.001 400.76 196.001 400.76 207.744 364.62 177.001 342.284"/><path d="M384.2217,195.56h-2.251a115.061,115.061,0,0,0-223.7615-51.6623,84.3993,84.3993,0,0,1,51.2639,31.6584,10,10,0,1,1-15.7773,12.291c-11.1575-14.3214-25.96-22.7229-44.0683-25.0952-.95-.0354-1.9-.0693-2.85-.0693h-2.561a76.8985,76.8985,0,0,0,0,153.7969H384.2217a60.46,60.46,0,1,0,0-120.9195Z"/></g></svg>