<svg xmlns="http://www.w3.org/2000/svg" viewBox="0 0 512 512"><g id="High__Temperature" data-name="High_Temperature"><path d="M301.0181,219.5947a10,10,0,0,1-10-10c0-15.791,8.6313-24.1777,14.9336-30.3008,5.9907-5.8212,8.8706-8.9311,8.8706-15.957s-2.88-10.1362-8.8706-15.9575c-6.3023-6.1235-14.9336-14.51-14.9336-30.3008s8.6313-24.1758,14.9341-30.2983c5.9907-5.82,8.87-8.9292,8.87-15.9536a10,10,0,0,1,20,0c0,15.79-8.6314,24.1757-14.9341,30.2983-5.9907,5.82-8.87,8.9292-8.87,15.9536,0,7.0259,2.88,10.1358,8.8706,15.957,6.3022,6.1236,14.9336,14.51,14.9336,30.3013s-8.6314,24.1773-14.9336,30.3008c-5.9907,5.8213-8.8706,8.9311-8.8706,15.957A10,10,0,0,1,301.0181,219.5947Z"/><path d="M339.74,219.5947a10,10,0,0,1-10-10c0-15.791,8.6313-24.1777,14.9336-30.3008,5.9907-5.8212,8.8706-8.9311,8.8706-15.957s-2.88-10.1362-8.8711-15.9575c-6.3018-6.1235-14.9331-14.51-14.9331-30.3008s8.6313-24.1758,14.934-30.2983c5.9908-5.82,8.87-8.9292,8.87-15.9536a10,10,0,0,1,20,0c0,15.79-8.6314,24.1757-14.9341,30.2983-5.9907,5.82-8.87,8.9292-8.87,15.9536,0,7.0259,2.88,10.1358,8.8706,15.957,6.3022,6.1236,14.9336,14.51,14.9336,30.3013s-8.6314,24.1773-14.9336,30.3008c-5.9908,5.8213-8.8706,8.9311-8.8706,15.957A10,10,0,0,1,339.74,219.5947Z"/><path d="M255.8606,319.0289V91.8912a40.6822,40.6822,0,0,0-40.6822-40.6823h0a40.6822,40.6822,0,0,0-40.6822,40.6823V319.029a76.7228,76.7228,0,1,0,81.3645,0ZM215.1783,424a37.5431,37.5431,0,0,1-9.6824-73.8158V98.8914a9.6824,9.6824,0,1,1,19.3647,0V350.1841A37.5431,37.5431,0,0,1,215.1783,424Z"/></g></svg>