<svg xmlns="http://www.w3.org/2000/svg" viewBox="0 0 512 512"><g id="Light_Rain"><path d="M182.8647,391.3979c6.5137-10.084,13.6607-21.9609,21.2427-35.3008a10,10,0,0,0-17.3877-9.8828c-7.292,12.83-14.4341,24.7012-20.6548,34.3311a10,10,0,1,0,16.8,10.8525Z"/><path d="M342.4766,342.4619a9.999,9.999,0,0,0-13.6353,3.7524c-7.292,12.83-14.4341,24.7012-20.6548,34.3311a10,10,0,1,0,16.8,10.8525c6.5137-10.084,13.6612-21.9609,21.2427-35.3008A10,10,0,0,0,342.4766,342.4619Z"/><path d="M253.9258,391.3979c6.5112-10.08,13.6582-21.9565,21.2422-35.3008a10,10,0,0,0-17.3877-9.8828c-7.294,12.834-14.4361,24.7056-20.6543,34.3311a10,10,0,1,0,16.8,10.8525Z"/><path d="M216.8853,404.2861a9.9992,9.9992,0,0,0-13.6353,3.7524c-7.2939,12.834-14.436,24.7056-20.6543,34.3311a10,10,0,1,0,16.8,10.8525c6.5112-10.08,13.6582-21.9565,21.2422-35.3007A10,10,0,0,0,216.8853,404.2861Z"/><path d="M287.9453,404.2856A10.0006,10.0006,0,0,0,274.31,408.039c-7.2891,12.8267-14.4312,24.6983-20.6539,34.3306a10,10,0,1,0,16.8,10.8525c6.5156-10.0869,13.6626-21.9638,21.2426-35.3012A10.0005,10.0005,0,0,0,287.9453,404.2856Z"/><path d="M384.2217,187.9038h-2.251a115.061,115.061,0,0,0-223.7615-51.6623A84.3993,84.3993,0,0,1,209.4731,167.9a10,10,0,1,1-15.7773,12.291c-11.1575-14.3215-25.96-22.7229-44.0683-25.0952-.95-.0354-1.9-.0693-2.85-.0693h-2.561a76.8985,76.8985,0,0,0,0,153.7969H384.2217a60.46,60.46,0,1,0,0-120.92Z"/></g></svg>