<svg xmlns="http://www.w3.org/2000/svg" viewBox="0 0 512 512"><g id="Low_Temperature"><path d="M379.7445,197.7744a10.0005,10.0005,0,0,0-12.7607-6.0966l-21.2116,7.4962-25.9669-14.9921L345.7724,169.19l21.2114,7.4958a10,10,0,1,0,6.6641-18.8565l-5.0853-1.7973,4.6819-2.7032a10,10,0,1,0-10-17.32l-4.6816,2.703.9863-5.3021a10,10,0,1,0-19.6621-3.6582l-4.1135,22.1178-25.9675,14.9924V136.8766l17.0966-14.6212a10,10,0,1,0-12.998-15.1992l-4.0986,3.5051v-5.406a10,10,0,0,0-20,0v5.4066l-4.1-3.5057a10,10,0,1,0-12.998,15.1992l17.0977,14.6217v29.9846L265.0172,152.55v23.0938l14.7886,8.5383L265.0172,192.72V215.814l24.7889-14.3119v29.9846l-17.0977,14.6217a10,10,0,1,0,12.998,15.1992l4.1-3.5057v5.4066a10,10,0,0,0,20,0v-5.406l4.0986,3.5051a10,10,0,1,0,12.998-15.1992l-17.0966-14.6211V201.5027l25.9675,14.9923,4.1135,22.1178a10,10,0,1,0,19.6621-3.6582l-.9863-5.302,4.6816,2.7029a10,10,0,1,0,10-17.32l-4.6817-2.703,5.0851-1.797A10.0008,10.0008,0,0,0,379.7445,197.7744Z"/><path d="M249.0866,319.029V91.8912A40.6822,40.6822,0,0,0,208.4043,51.209h0A40.6822,40.6822,0,0,0,167.722,91.8912V319.029a76.7228,76.7228,0,1,0,81.3646,0ZM208.4042,424a37.5431,37.5431,0,0,1-9.6824-73.8158v-127.32a9.6824,9.6824,0,1,1,19.3648,0v127.32A37.5431,37.5431,0,0,1,208.4042,424Z"/></g></svg>