<svg xmlns="http://www.w3.org/2000/svg" viewBox="0 0 512 512"><g id="Meteor_Rain"><path d="M396.74,339.7905a7.2627,7.2627,0,0,0-6.4892-3.9531c-.0469,0-.0938,0-.14.0015l-19.4082.3618-11.3012-15.7832a7.3093,7.3093,0,0,0-12.9361,2.1264l-5.6538,18.57-18.5024,5.87a7.31,7.31,0,0,0-1.9756,12.96L336.2476,371.06l-.1343,19.4111a7.3023,7.3023,0,0,0,11.7158,5.8833l15.4888-11.7,18.42,6.1265a7.31,7.31,0,0,0,9.2158-9.3243L384.6118,363.11l11.5191-15.625A7.2653,7.2653,0,0,0,396.74,339.7905Z"/><path d="M332.0264,266.0889l10.33,7.2148-.0874,12.6a5.7232,5.7232,0,0,0,9.1827,4.6113l10.0542-7.5947,11.9565,3.9766a5.7292,5.7292,0,0,0,7.2231-7.3081L376.5688,267.68l7.4776-10.1426a5.7288,5.7288,0,0,0-4.7183-9.1274l-12.5986.2348-7.3355-10.2456a5.7293,5.7293,0,0,0-10.1391,1.667l-3.67,12.0542-12.0108,3.8106a5.7294,5.7294,0,0,0-1.5478,10.1582Z"/><path d="M285.6528,342.085l-12.5986.2348-7.3359-10.2456a5.7292,5.7292,0,0,0-10.1387,1.667l-3.67,12.0547-12.0108,3.81a5.7286,5.7286,0,0,0-1.5483,10.1573l10.3306,7.2158-.0874,12.6a5.7232,5.7232,0,0,0,9.1821,4.6113l10.0542-7.5952,11.9575,3.9775a5.7292,5.7292,0,0,0,7.2222-7.3081l-4.1162-11.91,7.477-10.1426a5.7294,5.7294,0,0,0-4.7178-9.1279Z"/><path d="M317.9805,303.8379,171.5684,157.4258a10,10,0,1,0-14.1426,14.1426L303.8379,317.9805a10,10,0,0,0,14.1426-14.1426Z"/><path d="M310.833,231.3a10,10,0,0,0,14.1426-14.1421L178.5635,70.7456a10,10,0,1,0-14.1426,14.1421Z"/><path d="M84.8877,164.4209a10,10,0,1,0-14.1421,14.1426L217.1582,324.9756A10,10,0,0,0,231.3,310.833Z"/></g></svg>