<svg xmlns="http://www.w3.org/2000/svg" viewBox="0 0 512 512"><g id="Night"><path d="M174.1183,266.274h2.416q2.0478,0,4.0986.1108A111.947,111.947,0,0,1,257.98,176.2a98.1554,98.1554,0,0,0-88.5249-62.38,7,7,0,0,0-5.7227,11.3139A68.4241,68.4241,0,0,1,80.9347,229.2994a7,7,0,0,0-9.7315,8.1274,98.0248,98.0248,0,0,0,42.9558,58.2584A75.8493,75.8493,0,0,1,174.1183,266.274Z"/><path d="M400.5841,317.2964H390.3829a10,10,0,0,1-9.7158-12.3667A91.9518,91.9518,0,1,0,199.53,278.0962a10,10,0,0,1-11.9473,9.273,56.45,56.45,0,0,0-11.0488-1.0952h-2.416a55.9553,55.9553,0,0,0,0,111.9106H400.5841a40.4441,40.4441,0,1,0,0-80.8882Z"/></g></svg>