<svg xmlns="http://www.w3.org/2000/svg" viewBox="0 0 512 512"><g id="Pouring_Rain"><path d="M182.3516,354.9866a10,10,0,0,0-13.8848,2.6855L120.08,429.2688a10,10,0,1,0,16.57,11.1992l48.3867-71.5967A10,10,0,0,0,182.3516,354.9866Z"/><path d="M234.125,354.9866a10,10,0,0,0-13.8848,2.6855l-48.3867,71.5967a10,10,0,1,0,16.57,11.1992l48.3867-71.5967A10,10,0,0,0,234.125,354.9866Z"/><path d="M285.8984,354.9866a9.9993,9.9993,0,0,0-13.8847,2.6855L223.627,429.2688a10,10,0,1,0,16.57,11.1992l48.3867-71.5967A10,10,0,0,0,285.8984,354.9866Z"/><path d="M337.4609,354.9866a9.9994,9.9994,0,0,0-13.8847,2.6855L275.19,429.2688a10,10,0,1,0,16.57,11.1992l48.3867-71.5967A10,10,0,0,0,337.4609,354.9866Z"/><path d="M389.2344,354.9866a9.9994,9.9994,0,0,0-13.8848,2.6855l-48.3867,71.5967a10,10,0,1,0,16.57,11.1992L391.92,368.8713A10,10,0,0,0,389.2344,354.9866Z"/><path d="M384.2217,200.8313h-2.251a115.061,115.061,0,0,0-223.7615-51.6624,84.4,84.4,0,0,1,51.2639,31.6585,10,10,0,1,1-15.7773,12.291c-11.1575-14.3215-25.96-22.7229-44.0683-25.0952-.95-.0354-1.9-.0693-2.85-.0693h-2.561a76.8984,76.8984,0,0,0,0,153.7968H384.2217a60.46,60.46,0,1,0,0-120.9194Z"/></g></svg>