<svg xmlns="http://www.w3.org/2000/svg" viewBox="0 0 512 512"><g id="Rainy_Night"><path d="M202.5807,416.134a10,10,0,0,1-7.3139-16.8174l30-32.1958a10,10,0,1,1,14.6318,13.6347l-30,32.1958A9.9736,9.9736,0,0,1,202.5807,416.134Z"/><path d="M262.5807,416.134a10,10,0,0,1-7.3139-16.8174l30-32.1958a10,10,0,1,1,14.6318,13.6347l-30,32.1958A9.9736,9.9736,0,0,1,262.5807,416.134Z"/><path d="M322.5807,416.134a10,10,0,0,1-7.3139-16.8174l30-32.1958a10,10,0,1,1,14.6318,13.6347l-30,32.1958A9.9736,9.9736,0,0,1,322.5807,416.134Z"/><path d="M375.8459,231.1081a87.0795,87.0795,0,0,0-174.0308-4.7227,10.0007,10.0007,0,0,1-11.9482,9.273,53.2621,53.2621,0,0,0-10.4268-1.0342h-2.3013a52.8081,52.8081,0,0,0,0,105.6162H392.798a38.0369,38.0369,0,0,0,0-76.0737h-9.7143A10,10,0,0,1,373.3678,251.8,87.5044,87.5044,0,0,0,375.8459,231.1081Z"/><path d="M177.1388,214.6242H179.44q1.7467,0,3.4956.084a106.9723,106.9723,0,0,1,52.44-76.4433,83.5813,83.5813,0,0,0-70.289-42.3956,7,7,0,0,0-5.7232,11.314A56.39,56.39,0,0,1,91.1281,193.028a7,7,0,0,0-9.731,8.1275,83.4669,83.4669,0,0,0,33.9181,47.8835A72.8141,72.8141,0,0,1,177.1388,214.6242Z"/></g></svg>