<svg xmlns="http://www.w3.org/2000/svg" viewBox="0 0 512 512"><g id="Rainbow"><path d="M181.3828,335.8726h-5.1055a10,10,0,0,1-9.7158-12.3663,41.0321,41.0321,0,1,0-80.8281-11.9838,10,10,0,0,1-11.9482,9.2729,23.2353,23.2353,0,0,0-4.55-.4512h-1.209a23.014,23.014,0,0,0,0,46.0279H181.3828a15.25,15.25,0,1,0,0-30.5Z"/><path d="M443.9736,320.3442h-1.209a23.2353,23.2353,0,0,0-4.55.4512,10,10,0,0,1-11.9482-9.2729,41.0293,41.0293,0,1,0-80.8281,11.9838,10,10,0,0,1-9.7158,12.3663h-5.1055a15.25,15.25,0,1,0,0,30.5H443.9736a23.014,23.014,0,0,0,0-46.0279Z"/><path d="M327.7852,255.02a101.772,101.772,0,0,0-144.4581,0A104.2439,104.2439,0,0,0,170.23,271.0334a61.0481,61.0481,0,0,1,15.0725,25.7192A77.2534,77.2534,0,0,1,201.47,273.1631a76.1133,76.1133,0,0,1,108.1719,0,77.1756,77.1756,0,0,1,16.708,24.8125,61,61,0,0,1,14.8967-26.3928A104.204,104.204,0,0,0,327.7852,255.02Z"/><path d="M255.5557,185.2866a142.0053,142.0053,0,0,0-121.0965,67.9478,60.6042,60.6042,0,0,1,24.7683,8.9181,116.2091,116.2091,0,0,1,192.9258.3972,60.6216,60.6216,0,0,1,24.5633-9.21A142.0076,142.0076,0,0,0,255.5557,185.2866Z"/><path d="M255.5557,145.6279c-80.6851,0-149.2425,52.8839-172.8433,125.81A60.9279,60.9279,0,0,1,118.2717,253.31a155.8994,155.8994,0,0,1,274.5022-.1224A60.8846,60.8846,0,0,1,427.96,270.1129C403.96,197.8733,335.7507,145.6279,255.5557,145.6279Z"/></g></svg>