<svg xmlns="http://www.w3.org/2000/svg" viewBox="0 0 512 512"><g id="Rainy_Day"><path d="M206.8228,413.7964a10,10,0,0,1-7.314-16.8174l30-32.1958a10,10,0,0,1,14.6318,13.6348l-30,32.1958A9.9735,9.9735,0,0,1,206.8228,413.7964Z"/><path d="M266.8228,413.7964a10,10,0,0,1-7.314-16.8174l30-32.1958a10,10,0,0,1,14.6318,13.6348l-30,32.1958A9.9735,9.9735,0,0,1,266.8228,413.7964Z"/><path d="M326.8228,413.7964a10,10,0,0,1-7.314-16.8174l30-32.1958a10,10,0,1,1,14.6318,13.6348l-30,32.1958A9.9735,9.9735,0,0,1,326.8228,413.7964Z"/><path d="M187.15,135.9053a10,10,0,0,1-10-10V108.2036a10,10,0,0,1,20,0v17.7017A10,10,0,0,1,187.15,135.9053Z"/><path d="M104.625,218.4307H86.9233a10,10,0,1,1,0-20H104.625a10,10,0,0,1,0,20Z"/><path d="M135.8677,157.147a10,10,0,0,0-.0005-14.1421L123.35,130.4883a10,10,0,0,0-14.1416,14.1426l12.5171,12.5166a10,10,0,0,0,14.1421-.0005Z"/><path d="M380.0879,228.7705a87.08,87.08,0,0,0-174.0313-4.7226,10.0006,10.0006,0,0,1-11.9482,9.2729,53.2556,53.2556,0,0,0-10.4263-1.0342H181.38a52.8081,52.8081,0,0,0,0,105.6162H397.04a38.0369,38.0369,0,0,0,0-76.0737h-9.7148a10,10,0,0,1-9.7158-12.3677A87.4892,87.4892,0,0,0,380.0879,228.7705Z"/><path d="M181.38,212.2866h2.3017q1.7469,0,3.4951.084a106.6075,106.6075,0,0,1,29.7856-59.0078,62.6,62.6,0,0,0-87.1,80.3345A72.5805,72.5805,0,0,1,181.38,212.2866Z"/></g></svg>