<svg xmlns="http://www.w3.org/2000/svg" viewBox="0 0 512 512"><g id="Snowfall"><path d="M290.2949,402.3676a10,10,0,0,0-13.66-3.66L266,404.8474v-12.28a10,10,0,1,0-20,0v12.28l-10.6348-6.14a10,10,0,0,0-10,17.32L236,422.1677l-10.6348,6.14a10,10,0,1,0,10,17.32L246,439.488v12.28a10,10,0,1,0,20,0v-12.28l10.6348,6.14a10,10,0,0,0,10-17.32L276,422.1677l10.6348-6.14A9.9993,9.9993,0,0,0,290.2949,402.3676Z"/><path d="M378.9629,377.2343l-10.6348-6.14,10.6348-6.14a10,10,0,0,0-10-17.32l-10.6348,6.14v-12.28a10,10,0,0,0-20,0v12.28l-10.6347-6.14a10,10,0,1,0-10,17.32l10.6347,6.14-10.6347,6.14a10,10,0,1,0,10,17.32l10.6347-6.14v12.28a10,10,0,0,0,20,0v-12.28l10.6348,6.14a10,10,0,0,0,10-17.32Z"/><path d="M197.9668,351.2944a10,10,0,0,0-13.66-3.66l-10.6347,6.14v-12.28a10,10,0,0,0-20,0v12.28l-10.6348-6.14a10,10,0,0,0-10,17.32l10.6348,6.14-10.6348,6.14a10,10,0,1,0,10,17.32l10.6348-6.14v12.28a10,10,0,0,0,20,0v-12.28l10.6347,6.14a10,10,0,1,0,10-17.32l-10.6347-6.14,10.6347-6.14A9.9992,9.9992,0,0,0,197.9668,351.2944Z"/><path d="M384.2217,183.9327h-2.251A115.061,115.061,0,0,0,158.2092,132.27a84.4,84.4,0,0,1,51.2639,31.6585,10,10,0,1,1-15.7773,12.291c-11.1575-14.3214-25.96-22.7229-44.0683-25.0952-.95-.0354-1.9-.0694-2.85-.0694h-2.561a76.8985,76.8985,0,0,0,0,153.7969H384.2217a60.46,60.46,0,1,0,0-120.9194Z"/></g></svg>