<svg xmlns="http://www.w3.org/2000/svg" viewBox="0 0 512 512"><g id="Storm"><path d="M179.1,120.8633a10,10,0,0,0,10-10V91.3546a10,10,0,0,0-20,0v19.5087A10,10,0,0,0,179.1,120.8633Z"/><path d="M88.15,191.8135H68.6416a10,10,0,0,0,0,20H88.15a10,10,0,1,0,0-20Z"/><path d="M121.86,144.5733a10.0006,10.0006,0,0,0,0-14.1426l-13.795-13.7949a10,10,0,1,0-14.1425,14.1426l13.7949,13.7949a10.0011,10.0011,0,0,0,14.1426,0Z"/><path d="M336.4128,323.1182H303.662a3.2625,3.2625,0,0,1-3.1565-4.0874l19.232-73.5923a3.9089,3.9089,0,0,0-3.8282-4.9115,3.7855,3.7855,0,0,0-2.8871,1.3518l-88.241,100.7636a3.2625,3.2625,0,0,0,2.4544,5.4119h32.7509a3.2623,3.2623,0,0,1,3.1564,4.0872l-19.232,73.5924a3.909,3.909,0,0,0,3.8282,4.9115,3.7845,3.7845,0,0,0,2.8871-1.3518L338.8672,328.53A3.2625,3.2625,0,0,0,336.4128,323.1182Z"/><path d="M172.7412,207.0845h2.5361q2.3614,0,4.7256.1411a116.4554,116.4554,0,0,1,32.3484-65.0507,68.2645,68.2645,0,0,0-95.3954,87.9431A78.9625,78.9625,0,0,1,172.7412,207.0845Z"/><path d="M410.417,259.6426H399.7109a10,10,0,0,1-9.7158-12.3667A96.9984,96.9984,0,1,0,198.917,218.9708a10,10,0,0,1-11.9482,9.2729,59.7008,59.7008,0,0,0-11.6915-1.1592h-2.5361a59.22,59.22,0,0,0,0,118.44h31.2647a23.2844,23.2844,0,0,1,5.7292-16.0584l88.2406-100.7632a23.86,23.86,0,0,1,17.9324-8.1759h.0014a24.1851,24.1851,0,0,1,19.017,9.3475,23.693,23.693,0,0,1,4.1611,20.6209l-13.7519,52.6228h11.0771a23.2623,23.2623,0,0,1,17.5,38.5879l-3.3437,3.8184H410.417a42.941,42.941,0,1,0,0-85.8819Z"/></g></svg>