<svg xmlns="http://www.w3.org/2000/svg" viewBox="0 0 512 512"><g id="Sunrise"><path d="M256,167.4221a10,10,0,0,0,10-10V121.1287a10,10,0,1,0-20,0v36.2934A10,10,0,0,0,256,167.4221Z"/><path d="M353.2568,264.6794a10,10,0,0,0,10,10h36.294a10,10,0,0,0,0-20h-36.294A10,10,0,0,0,353.2568,264.6794Z"/><path d="M112.4492,274.6794h36.294a10,10,0,0,0,0-20h-36.294a10,10,0,0,0,0,20Z"/><path d="M173.0859,195.908a10,10,0,1,0,14.1426-14.1416l-25.6631-25.6636a10,10,0,1,0-14.1425,14.1416Z"/><path d="M331.8428,198.8372a9.97,9.97,0,0,0,7.0713-2.9292l25.663-25.6636a10,10,0,1,0-14.1425-14.1416l-25.6631,25.6636a10,10,0,0,0,7.0713,17.0708Z"/><path d="M432.0264,297.6423H333.8673a84.585,84.585,0,1,0-155.7346,0H79.9736a10,10,0,0,0,0,20H432.0264a10,10,0,0,0,0-20Z"/><path d="M363.5078,339.2571H148.4922a10,10,0,1,0,0,20H363.5078a10,10,0,0,0,0-20Z"/><path d="M288.7031,380.8713H223.2969a10,10,0,0,0,0,20h65.4062a10,10,0,0,0,0-20Z"/></g></svg>