<svg xmlns="http://www.w3.org/2000/svg" viewBox="0 0 512 512"><g id="Tornado"><circle cx="122.0144" cy="338.7079" r="20.0599"/><circle cx="407.3467" cy="202.8066" r="20.0599"/><path d="M246.6493,333.2773a10,10,0,1,1,0-20H302.66c21.8058-30.1564,41.916-68.3043,55.2408-115.9014H211.0418a10,10,0,1,1,0-20h151.917a443.9253,443.9253,0,0,0,7.81-45.4164c1.358-11.3458-6.8231-21.4-17.3891-21.4H102.1239c-11.9737,0-20.3857,12.691-16.6241,24.9994,6.54,21.4,22.8725,55.0837,63.51,95.2966A147.9109,147.9109,0,0,1,162.3347,246h75.9376a10,10,0,1,1,0,20H175.3435c18.2609,33.3951,24.8835,73.8849,17.6929,113.3327l-.8774,4.8138c-2.1924,12.0275,9.2187,21.4027,18.819,15.4583a323.64,323.64,0,0,0,76.058-66.3274Z"/></g></svg>