<svg xmlns="http://www.w3.org/2000/svg" viewBox="0 0 512 512"><g id="Umbrella"><path d="M282.8555,427.0347A36.8971,36.8971,0,0,1,246,390.1792V240.2739a10,10,0,0,1,20,0V390.1792a16.855,16.855,0,1,0,33.71,0V364.23a10,10,0,0,1,20,0v25.9492A36.8969,36.8969,0,0,1,282.8555,427.0347Z"/><path d="M256,130.8237c-17.4482,0-41.4834,47.69-43.5654,126.126,12.0029-7.3721,27.3711-11.6533,43.5654-11.6533s31.5625,4.2812,43.5654,11.6533C297.4834,178.5142,273.4482,130.8237,256,130.8237Z"/><path d="M208.6279,160.4927c10.9163-29.9064,23.9871-42.59,35.4384-47.2774-84.73,5.4918-151.7958,68.9708-151.7958,146.2178v.7354a6,6,0,0,0,10.6563,3.7841c8.7294-10.7392,27.1562-17.6787,46.9443-17.6787,17.1506,0,32.8556,5.0057,42.5127,13.1744C193.14,222.1887,198.8352,187.3194,208.6279,160.4927Z"/><path d="M267.9337,113.2153c11.4513,4.6877,24.5221,17.371,35.4384,47.2774,9.7927,26.8267,15.488,61.696,16.2441,98.9556,9.6571-8.1687,25.3621-13.1744,42.5127-13.1744,19.7881,0,38.2149,6.94,46.9443,17.6787a6,6,0,0,0,10.6563-3.7841v-.7354C419.73,182.1861,352.6637,118.7071,267.9337,113.2153Z"/><path d="M256,110.8237a31.0905,31.0905,0,0,1,10,1.669V94.9653a10,10,0,0,0-20,0v17.5274A31.0905,31.0905,0,0,1,256,110.8237Z"/></g></svg>