<svg id="Weather_Warning" xmlns="http://www.w3.org/2000/svg" viewBox="0 0 512 512"><path d="M391.0347,248.7786H380.5134a114.8165,114.8165,0,0,0,3.2586-26.5266c.374-63.2324-51.3238-115.2535-114.5572-115.2621A114.5773,114.5773,0,0,0,154.7925,215.3621a74.4588,74.4588,0,0,0-14.6218-1.4494h-1.699c-40.8718,0-75.242,33.437-75.1437,74.3088a73.6972,73.6972,0,0,0,9.8131,36.6759A38.4821,38.4821,0,0,0,106.5625,343.99H154.764l28.4733-49.3172,39.264-68.0073a41.5536,41.5536,0,0,1,71.9731,0l39.2639,68.0073L362.2117,343.99H409.9c20.82,0,38.2976-16.4258,38.758-37.2411q.0234-1.0568.0078-2.1225C448.2114,273.4905,422.1733,248.7786,391.0347,248.7786Z"/><path d="M355.6819,372.68l-39.2642-68.0073-39.264-68.0073a21.5536,21.5536,0,0,0-37.3318,0l-39.264,68.0073L161.2938,372.68A21.5536,21.5536,0,0,0,179.96,405.01H337.0159A21.5537,21.5537,0,0,0,355.6819,372.68Zm-97.198,5.8461a11.1068,11.1068,0,1,1,11.1067-11.1068A11.1067,11.1067,0,0,1,258.4839,378.5258Zm14.902-87.6844-6.1337,45.3239a8.8443,8.8443,0,0,1-17.5288,0L243.59,290.8414a9.2309,9.2309,0,0,1,9.1476-10.4688h11.501A9.2309,9.2309,0,0,1,273.3859,290.8414Z"/></svg>