<svg xmlns="http://www.w3.org/2000/svg" viewBox="0 0 512 512"><g id="Weather_App"><path d="M256,214.7624a26.2017,26.2017,0,1,0,26.2021,26.2012A26.2314,26.2314,0,0,0,256,214.7624Z"/><path d="M335.3335,61.5231H176.6665a40.2552,40.2552,0,0,0-40.21,40.209V410.2673a40.2554,40.2554,0,0,0,40.21,40.21h158.667a40.2554,40.2554,0,0,0,40.2095-40.21V101.7321A40.2552,40.2552,0,0,0,335.3335,61.5231ZM294.1548,188.6667l9.7012-9.7012a10,10,0,0,1,14.1425,14.1426l-9.7011,9.7012a10,10,0,1,1-14.1426-14.1426ZM246,163.2848a10,10,0,0,1,20,0v13.72a10,10,0,0,1-20,0Zm-51.9985,15.6807a10.0021,10.0021,0,0,1,14.1425,0l9.7012,9.7012a10,10,0,0,1-14.1426,14.1426l-9.7011-9.7012A10.0014,10.0014,0,0,1,194.0015,178.9655Zm-25.68,61.9981a10,10,0,0,1,10-10h13.7192a10,10,0,0,1,0,20H178.3213A10,10,0,0,1,168.3213,240.9636Zm49.5239,52.2978-9.7012,9.7012A10,10,0,1,1,194.0015,288.82l9.7011-9.7012a10,10,0,0,1,14.1426,14.1426Zm61.67,123.8473h-47.031a8.8859,8.8859,0,0,1,0-17.7717h47.031a8.8859,8.8859,0,0,1,0,17.7717ZM246,318.6432v-13.72a10,10,0,0,1,20,0v13.72a10,10,0,0,1-20,0Zm10-31.4775a46.2017,46.2017,0,1,1,46.2021-46.2021A46.2546,46.2546,0,0,1,256,287.1657Zm61.9985,15.7969a10.001,10.001,0,0,1-14.1425,0l-9.7012-9.7012a10,10,0,0,1,14.1426-14.1426l9.7011,9.7012A10.0014,10.0014,0,0,1,317.9985,302.9626Zm15.68-51.999H319.96a10,10,0,0,1,0-20h13.7192a10,10,0,0,1,0,20Z"/></g></svg>