<svg xmlns="http://www.w3.org/2000/svg" viewBox="0 0 512 512"><g id="Wind"><path d="M304.0825,349.9575H292.5317a10,10,0,0,1,0-20h11.5508a13.7286,13.7286,0,0,0,0-27.4571H130.5366a10,10,0,1,1,0-20H304.0825a33.7286,33.7286,0,0,1,0,67.4571Z"/><path d="M273.0825,229.5H66.4116a10,10,0,0,1,0-20H273.0825a13.7285,13.7285,0,0,0,0-27.457H261.5317a10,10,0,0,1,0-20h11.5508a33.7285,33.7285,0,0,1,0,67.457Z"/><path d="M375.1035,266.7411H97.4116a10,10,0,1,1,0-20H375.1035a24.4849,24.4849,0,1,0,0-48.97H358.3164a10,10,0,0,1,0-20h16.7871a44.4849,44.4849,0,1,1,0,88.97Z"/></g></svg>