<svg xmlns="http://www.w3.org/2000/svg" viewBox="0 0 512 512"><g id="Wind_Vane"><path d="M398.0593,172.1866,332.97,143.4376a2.8522,2.8522,0,0,0-4.0044,2.6089V167.78H264.58V139.0892a25.66,25.66,0,1,0-20.0005,0V167.78H186.0371l-8.5423-15.4235H112.241l5.5231,9.972a31.89,31.89,0,0,1,0,30.902l-5.5231,9.9721h65.2538l8.5418-15.4226H244.58v54.8613H207.1865a10,10,0,0,0,0,20H244.58V406.2018H142.6938a10,10,0,0,0,0,20h223.772a10,10,0,0,0,0-20H264.58v-143.56h37.3926a10,10,0,1,0,0-20H264.58V187.78h64.3857v15.7645a2.8521,2.8521,0,0,0,4.0044,2.6089l65.0891-28.749A2.8521,2.8521,0,0,0,398.0593,172.1866Z"/></g></svg>